<svg width="210" height="210" viewBox="0 0 210 210" fill="none" xmlns="http://www.w3.org/2000/svg">
<path d="M10 140C10 200 200 200 200 140V105H10V140Z" fill="black" stroke="white" stroke-width="6"/>
<path d="M10 105C10 165 200 165 200 105V70H10V105Z" fill="black" stroke="white" stroke-width="6"/>
<path d="M10 70C10 130 200 130 200 70C200 10 10 10 10 70Z" fill="black" stroke="white" stroke-width="6"/>
<path d="M105 78C107.761 78 110 73.5228 110 68C110 62.4772 107.761 58 105 58C102.239 58 100 62.4772 100 68C100 73.5228 102.239 78 105 78Z" fill="black"/>
</svg>
