<svg width="100" height="100" viewBox="0 0 100 100" fill="none" xmlns="http://www.w3.org/2000/svg">
    <g clip-path="url(#clip0_824_26)">
        <rect width="100" height="100" fill="none"/>
        <line x1="-0.176777" y1="99.8232" x2="99.8232" y2="-0.176775" stroke="black" stroke-width="0.5"/>
        <line x1="3.82322" y1="104.823" x2="103.823" y2="4.82323" stroke="black" stroke-width="0.5"/>
        <line x1="10.8232" y1="107.823" x2="110.823" y2="7.82323" stroke="black" stroke-width="0.5"/>
        <line x1="18.8232" y1="110.823" x2="118.823" y2="10.8232" stroke="black" stroke-width="0.5"/>
        <line x1="26.8232" y1="113.823" x2="126.823" y2="13.8232" stroke="black" stroke-width="0.5"/>
        <line x1="33.8232" y1="117.823" x2="133.823" y2="17.8232" stroke="black" stroke-width="0.5"/>
        <line x1="39.8232" y1="121.823" x2="139.823" y2="21.8232" stroke="black" stroke-width="0.5"/>
        <line x1="45.8232" y1="125.823" x2="145.823" y2="25.8232" stroke="black" stroke-width="0.5"/>
        <line x1="51.8232" y1="129.823" x2="151.823" y2="29.8232" stroke="black" stroke-width="0.5"/>
        <line x1="57.8232" y1="135.823" x2="157.823" y2="35.8232" stroke="black" stroke-width="0.5"/>
        <line x1="-59.1768" y1="62.8232" x2="40.8232" y2="-37.1768" stroke="black" stroke-width="0.5"/>
        <line x1="-52.1768" y1="65.8232" x2="47.8232" y2="-34.1768" stroke="black" stroke-width="0.5"/>
        <line x1="-44.1768" y1="68.8232" x2="55.8232" y2="-31.1768" stroke="black" stroke-width="0.5"/>
        <line x1="-36.1768" y1="71.8232" x2="63.8232" y2="-28.1768" stroke="black" stroke-width="0.5"/>
        <line x1="-29.1768" y1="75.8232" x2="70.8232" y2="-24.1768" stroke="black" stroke-width="0.5"/>
        <line x1="-23.1768" y1="79.8232" x2="76.8232" y2="-20.1768" stroke="black" stroke-width="0.5"/>
        <line x1="-17.1768" y1="83.8232" x2="82.8232" y2="-16.1768" stroke="black" stroke-width="0.5"/>
        <line x1="-11.1768" y1="87.8232" x2="88.8232" y2="-12.1768" stroke="black" stroke-width="0.5"/>
        <line x1="-5.17678" y1="93.8232" x2="94.8232" y2="-6.17677" stroke="black" stroke-width="0.5"/>
    </g>
    <defs>
        <clipPath id="clip0_824_26">
            <rect width="100" height="100" fill="white"/>
        </clipPath>
    </defs>
</svg>
