<svg width="210" height="210" viewBox="0 0 210 210" fill="none" xmlns="http://www.w3.org/2000/svg">
<path d="M98.3942 36.5219C100.42 30.6951 101.432 27.7818 102.93 26.9743C104.226 26.2755 105.786 26.2755 107.083 26.9743C108.58 27.7818 109.592 30.6951 111.618 36.5219L125.008 75.0428C125.585 76.7012 125.873 77.5303 126.392 78.1478C126.851 78.6933 127.436 79.1185 128.097 79.3862C128.844 79.6894 129.722 79.7073 131.477 79.743L172.25 80.5739C178.418 80.6996 181.502 80.7625 182.733 81.9372C183.798 82.9539 184.28 84.4381 184.016 85.8867C183.711 87.5607 181.253 89.4235 176.337 93.151L143.839 117.788C142.44 118.85 141.741 119.38 141.314 120.064C140.937 120.67 140.714 121.358 140.663 122.068C140.606 122.873 140.86 123.713 141.368 125.394L153.178 164.429C154.964 170.333 155.857 173.285 155.12 174.818C154.483 176.146 153.22 177.063 151.76 177.26C150.074 177.486 147.543 175.725 142.479 172.201L109.004 148.908C107.563 147.905 106.843 147.404 106.06 147.209C105.368 147.037 104.644 147.037 103.953 147.209C103.17 147.404 102.449 147.905 101.008 148.908L67.5334 172.201C62.47 175.725 59.9382 177.486 58.2521 177.26C56.7929 177.063 55.5303 176.146 54.8925 174.818C54.1555 173.285 55.0487 170.333 56.8351 164.429L68.6445 125.394C69.1529 123.713 69.4071 122.873 69.3498 122.068C69.2993 121.358 69.0758 120.67 68.6988 120.064C68.272 119.38 67.5725 118.85 66.1734 117.788L33.6756 93.151C28.7598 89.4235 26.3019 87.5607 25.9968 85.8867C25.7327 84.4381 26.215 82.9539 27.2801 81.9372C28.5107 80.7625 31.5945 80.6997 37.7619 80.5739L78.5352 79.743C80.2905 79.7073 81.1682 79.6894 81.916 79.3862C82.5765 79.1185 83.1617 78.6933 83.6205 78.1478C84.1399 77.5303 84.4281 76.7012 85.0046 75.0428L98.3942 36.5219Z" fill="black" stroke="black" stroke-width="17.5" stroke-linecap="round" stroke-linejoin="round"/>
</svg>
